<svg xmlns="http://www.w3.org/2000/svg" viewBox="0 0 64 64" role="img" aria-label="Campus Event Hub">
  <rect width="64" height="64" rx="14" fill="#F9FAF4"/>
  <path fill="#4A6163" d="M18 12h31a7 7 0 0 1 7 7v31a7 7 0 0 1-7 7H18a7 7 0 0 1-7-7V19a7 7 0 0 1 7-7Z"/>
  <path fill="#F17A7E" d="M14 10h31a7 7 0 0 1 7 7v31a7 7 0 0 1-7 7H14a7 7 0 0 1-7-7V17a7 7 0 0 1 7-7Z"/>
  <path fill="#F9FAF4" stroke="#4A6163" stroke-width="4" d="M17 22h25a3 3 0 0 1 3 3v20a3 3 0 0 1-3 3H17a3 3 0 0 1-3-3V25a3 3 0 0 1 3-3Z"/>
  <path fill="#FFC94B" d="M14 25a3 3 0 0 1 3-3h25a3 3 0 0 1 3 3v6H14v-6Z"/>
  <path stroke="#4A6163" stroke-linecap="round" stroke-width="4" d="M22 16v10M37 16v10"/>
  <path fill="#F9A66C" stroke="#4A6163" stroke-linejoin="round" stroke-width="3" d="M24 36h20v11H24a3 3 0 0 1-3-3v-5a3 3 0 0 1 3-3Z"/>
  <path stroke="#4A6163" stroke-linecap="round" stroke-width="3" d="M31 41h6"/>
  <circle cx="49" cy="17" r="7" fill="#FFC94B" stroke="#4A6163" stroke-width="3"/>
</svg>
